<svg width="645" height="502" viewBox="0 0 645 502" fill="none" xmlns="http://www.w3.org/2000/svg">
<path d="M555.943 112.118H405.939V262.122H555.943V112.118Z" fill="#D6E6F7"/>
<path d="M555.943 112.118H405.939V262.122H555.943V112.118Z" fill="url(#paint0_linear_262_16834)"/>
<path d="M433.213 68.8878H362.711V139.39H433.213V68.8878Z" fill="#84B5EA"/>
<path d="M433.213 68.8878H362.711V139.39H433.213V68.8878Z" fill="url(#paint1_linear_262_16834)"/>
<path d="M498.524 0H464.023V34.501H498.524V0Z" fill="#A4DDED"/>
<path d="M498.524 0H464.023V34.501H498.524V0Z" fill="url(#paint2_linear_262_16834)"/>
<path d="M334.091 177.361C211.343 177.361 110.912 274.738 102.264 397.865H565.64C556.993 274.738 456.562 177.361 334.091 177.361Z" fill="#F2FBFD"/>
<path d="M54.3301 277.435H109.964V399.629H54.3301V277.435Z" fill="#6AA6AA"/>
<path d="M54.3281 277.428H109.962V399.623H54.3281V277.428Z" fill="url(#paint3_linear_262_16834)"/>
<path d="M155.583 186.949H107.91V203.336H155.583V186.949Z" fill="#CCE0F5"/>
<path d="M97.4883 200.359H167.508V399.992H97.4883V200.359Z" fill="#CCE0F5"/>
<path fill-rule="evenodd" clip-rule="evenodd" d="M155.589 186.949H107.916V200.359H97.4883V399.99H167.508V200.359H155.589V186.949Z" fill="url(#paint4_linear_262_16834)"/>
<path d="M167 251.695H263.836V399.993H167V251.695Z" fill="#B7D7F2"/>
<path d="M167 251.695H263.836V399.993H167V251.695Z" fill="url(#paint5_linear_262_16834)"/>
<path d="M113.041 219.729V233.136" stroke="white" stroke-width="1.5"/>
<path d="M126.447 219.729V233.136" stroke="white" stroke-width="1.5"/>
<path d="M139.855 219.729V233.136" stroke="white" stroke-width="1.5"/>
<path d="M113.047 242.063V255.473" stroke="white" stroke-width="1.5"/>
<path d="M126.453 242.063V255.473" stroke="white" stroke-width="1.5"/>
<path d="M139.859 242.063V255.473" stroke="white" stroke-width="1.5"/>
<path d="M113.041 264.432V277.839" stroke="white" stroke-width="1.5"/>
<path d="M126.449 264.432V277.839" stroke="white" stroke-width="1.5"/>
<path d="M139.855 264.432V277.839" stroke="white" stroke-width="1.5"/>
<path d="M75.1442 333.951C35.3566 333.951 2.80321 363.251 0 400.298H150.198C147.395 363.251 114.841 333.951 75.1442 333.951Z" fill="#D6F7F9"/>
<path d="M75.1442 333.951C35.3566 333.951 2.80321 363.251 0 400.298H150.198C147.395 363.251 114.841 333.951 75.1442 333.951Z" fill="url(#paint6_radial_262_16834)"/>
<path fill-rule="evenodd" clip-rule="evenodd" d="M273.058 342.175C273.058 342.173 273.058 342.172 273.058 342.17C273.058 325.009 259.147 319.669 241.988 319.669C224.827 319.669 210.916 325.009 210.916 342.17C210.916 342.266 210.916 342.362 210.918 342.458V400.032H273.06L273.058 342.175Z" fill="#D6E6F7"/>
<path fill-rule="evenodd" clip-rule="evenodd" d="M326.148 323.894C326.148 301.314 307.844 294.287 285.265 294.287C262.686 294.287 244.381 301.313 244.381 323.892V400.022H326.148V323.894Z" fill="#70A5E7"/>
<path fill-rule="evenodd" clip-rule="evenodd" d="M326.148 323.894C326.148 301.314 307.844 294.287 285.265 294.287C262.686 294.287 244.381 301.313 244.381 323.892V400.022H326.148V323.894Z" fill="url(#paint7_linear_262_16834)"/>
<path d="M259.438 294.005V361.673" stroke="white" stroke-width="1.5"/>
<path d="M276.354 294.005V361.673" stroke="white" stroke-width="1.5"/>
<path d="M258.236 305.485H275.154" stroke="white" stroke-width="1.5"/>
<path d="M258.236 316.769H275.154" stroke="white" stroke-width="1.5"/>
<path d="M258.236 328.042H275.154" stroke="white" stroke-width="1.5"/>
<path d="M258.236 339.313H275.154" stroke="white" stroke-width="1.5"/>
<path d="M258.236 350.597H275.154" stroke="white" stroke-width="1.5"/>
<path d="M72.2109 149.571H146.997" stroke="#ABE2F1" stroke-width="1.5"/>
<path d="M57.5234 149.571H68.2073" stroke="#ABE2F1" stroke-width="1.5"/>
<path d="M89.4127 139.773C90.0635 139.773 90.5911 139.245 90.5911 138.594C90.5911 137.943 90.0635 137.416 89.4127 137.416C88.7619 137.416 88.2344 137.943 88.2344 138.594C88.2344 139.245 88.7619 139.773 89.4127 139.773Z" fill="#ABE2F1"/>
<path d="M94.1295 139.773C94.7803 139.773 95.3079 139.245 95.3079 138.594C95.3079 137.943 94.7803 137.416 94.1295 137.416C93.4787 137.416 92.9512 137.943 92.9512 138.594C92.9512 139.245 93.4787 139.773 94.1295 139.773Z" fill="#ABE2F1"/>
<path d="M98.8463 139.773C99.4971 139.773 100.025 139.245 100.025 138.594C100.025 137.943 99.4971 137.416 98.8463 137.416C98.1955 137.416 97.668 137.943 97.668 138.594C97.668 139.245 98.1955 139.773 98.8463 139.773Z" fill="#ABE2F1"/>
<path d="M103.561 139.773C104.212 139.773 104.74 139.245 104.74 138.594C104.74 137.943 104.212 137.416 103.561 137.416C102.91 137.416 102.383 137.943 102.383 138.594C102.383 139.245 102.91 139.773 103.561 139.773Z" fill="#ABE2F1"/>
<path d="M108.272 139.773C108.923 139.773 109.45 139.245 109.45 138.594C109.45 137.943 108.923 137.416 108.272 137.416C107.621 137.416 107.094 137.943 107.094 138.594C107.094 139.245 107.621 139.773 108.272 139.773Z" fill="#ABE2F1"/>
<path d="M112.987 139.773C113.638 139.773 114.165 139.245 114.165 138.594C114.165 137.943 113.638 137.416 112.987 137.416C112.336 137.416 111.809 137.943 111.809 138.594C111.809 139.245 112.336 139.773 112.987 139.773Z" fill="#ABE2F1"/>
<path d="M117.698 139.773C118.349 139.773 118.876 139.245 118.876 138.594C118.876 137.943 118.349 137.416 117.698 137.416C117.047 137.416 116.52 137.943 116.52 138.594C116.52 139.245 117.047 139.773 117.698 139.773Z" fill="#ABE2F1"/>
<path d="M122.411 139.773C123.062 139.773 123.589 139.245 123.589 138.594C123.589 137.943 123.062 137.416 122.411 137.416C121.76 137.416 121.232 137.943 121.232 138.594C121.232 139.245 121.76 139.773 122.411 139.773Z" fill="#ABE2F1"/>
<path d="M127.128 139.773C127.778 139.773 128.306 139.245 128.306 138.594C128.306 137.943 127.778 137.416 127.128 137.416C126.477 137.416 125.949 137.943 125.949 138.594C125.949 139.245 126.477 139.773 127.128 139.773Z" fill="#ABE2F1"/>
<path d="M234.399 347.232L227.516 465.746H253.334L247.31 347.232C245.587 344.492 236.122 344.72 234.399 347.232Z" fill="#4B6897"/>
<path d="M234.399 347.232L227.516 465.747H253.334L247.31 347.232C245.587 344.491 236.122 344.721 234.399 347.232Z" fill="url(#paint8_linear_262_16834)"/>
<path d="M243.01 384.47L273.992 367.632V445.088H243.01V384.47Z" fill="#70A5E7"/>
<path d="M313.577 384.967V414.106H273.988V367.632L313.577 384.967Z" fill="#4B6897"/>
<path d="M313.577 384.964V414.104H273.988V367.631L313.577 384.964Z" fill="url(#paint9_linear_262_16834)"/>
<path d="M465.772 343.538L272.268 404.641V457.139L465.772 430.459V343.538Z" fill="#ABE2F1"/>
<path d="M465.772 343.538L272.268 404.641V457.139L465.772 430.459V343.538Z" fill="url(#paint10_linear_262_16834)"/>
<path d="M552.016 381.415V445.089H465.773V343.538L552.016 381.415Z" fill="#4B6897"/>
<path d="M552.016 381.415V445.089H465.773V343.538L552.016 381.415Z" fill="url(#paint11_linear_262_16834)"/>
<path d="M596.474 500.789L643.976 405.662L543.893 394.843L198.133 447.817V480.192L205.333 500.789H596.474Z" fill="#70A5E7"/>
<path d="M596.474 500.789L643.976 405.662L543.893 394.843L198.133 447.817V480.192L205.333 500.789H596.474Z" fill="url(#paint12_linear_262_16834)"/>
<path d="M644.096 405.662L544.012 394.843L514.316 401.816L464.049 500.789H596.592L644.096 405.662Z" fill="#4B6897"/>
<path d="M644.096 405.662L544.012 394.843L514.316 401.816L464.049 500.789H596.592L644.096 405.662Z" fill="url(#paint13_linear_262_16834)"/>
<path d="M643.977 405.662L636.779 421.77L539.588 412.795L543.894 394.843L643.977 405.662Z" fill="#70A5E7"/>
<path d="M425.403 412.678L424.545 429.831L539.466 412.678L543.754 394.669L425.403 412.678Z" fill="#DCEEFF"/>
<path d="M198.133 479.613L484.578 460.699L463.994 501.008H204.994L198.133 479.613Z" fill="#4F6EA0"/>
<path d="M541.252 241.276L530.477 259.382L541.252 277.732H562.314L573.09 259.382L562.314 241.276H541.252Z" fill="#70A5E7"/>
<path d="M541.252 282.626L530.477 300.977L541.252 319.327H562.314L573.09 300.977L562.314 282.626H541.252Z" fill="#29558D"/>
<path d="M504.268 261.828L493.736 280.18L504.268 298.531H525.573L536.105 280.18L525.573 261.828H504.268Z" fill="#ABE2F1"/>
<defs>
<linearGradient id="paint0_linear_262_16834" x1="544.134" y1="262.695" x2="418.502" y2="120.909" gradientUnits="userSpaceOnUse">
<stop stop-color="#F1F8FF"/>
<stop offset="0.650041" stop-color="#EAF2FB" stop-opacity="0"/>
</linearGradient>
<linearGradient id="paint1_linear_262_16834" x1="363.206" y1="68.1943" x2="443.073" y2="156.137" gradientUnits="userSpaceOnUse">
<stop stop-color="#CFE7FF"/>
<stop offset="1" stop-color="#D0E8FF" stop-opacity="0"/>
</linearGradient>
<linearGradient id="paint2_linear_262_16834" x1="504.406" y1="50.2524" x2="464.023" y2="11.6659" gradientUnits="userSpaceOnUse">
<stop stop-color="#379BB6"/>
<stop offset="1" stop-color="#94CCDB" stop-opacity="0"/>
</linearGradient>
<linearGradient id="paint3_linear_262_16834" x1="115" y1="357.176" x2="58.2705" y2="284.098" gradientUnits="userSpaceOnUse">
<stop stop-color="#1D6B70"/>
<stop offset="1" stop-color="#336D71" stop-opacity="0"/>
</linearGradient>
<linearGradient id="paint4_linear_262_16834" x1="183.581" y1="313.508" x2="86.4346" y2="203.884" gradientUnits="userSpaceOnUse">
<stop stop-color="#4F8FDA"/>
<stop offset="1" stop-color="#519EF8" stop-opacity="0"/>
</linearGradient>
<linearGradient id="paint5_linear_262_16834" x1="234.731" y1="358.074" x2="166.998" y2="251.125" gradientUnits="userSpaceOnUse">
<stop stop-color="#86BAE6"/>
<stop offset="1" stop-color="#87C0EF" stop-opacity="0"/>
</linearGradient>
<radialGradient id="paint6_radial_262_16834" cx="0" cy="0" r="1" gradientUnits="userSpaceOnUse" gradientTransform="translate(107.165 356.209) rotate(146.802) scale(79.7954 180.642)">
<stop stop-color="#EDFEFF"/>
<stop offset="1" stop-color="#D6F7F9" stop-opacity="0"/>
</radialGradient>
<linearGradient id="paint7_linear_262_16834" x1="265.73" y1="317.946" x2="308.498" y2="404.392" gradientUnits="userSpaceOnUse">
<stop stop-color="#C2D7F1"/>
<stop offset="1" stop-color="#70A5E7" stop-opacity="0"/>
</linearGradient>
<linearGradient id="paint8_linear_262_16834" x1="239.677" y1="438.61" x2="239.677" y2="363.511" gradientUnits="userSpaceOnUse">
<stop stop-color="#324769"/>
<stop offset="1" stop-color="#385078" stop-opacity="0"/>
</linearGradient>
<linearGradient id="paint9_linear_262_16834" x1="313.177" y1="418.637" x2="286.014" y2="384.283" gradientUnits="userSpaceOnUse">
<stop stop-color="#85A9E3"/>
<stop offset="1" stop-color="#85A9E3" stop-opacity="0"/>
</linearGradient>
<linearGradient id="paint10_linear_262_16834" x1="296.402" y1="426.626" x2="437.811" y2="365.109" gradientUnits="userSpaceOnUse">
<stop stop-color="#D6F6FF"/>
<stop offset="1" stop-color="#CBF4FF" stop-opacity="0"/>
</linearGradient>
<linearGradient id="paint11_linear_262_16834" x1="546.463" y1="424.229" x2="492.136" y2="375.495" gradientUnits="userSpaceOnUse">
<stop stop-color="#759DDD"/>
<stop offset="1" stop-color="#759DDD" stop-opacity="0"/>
</linearGradient>
<linearGradient id="paint12_linear_262_16834" x1="221.289" y1="467.574" x2="469.998" y2="430.696" gradientUnits="userSpaceOnUse">
<stop stop-color="#C3DDFD"/>
<stop offset="1" stop-color="#B5D1F3" stop-opacity="0"/>
</linearGradient>
<linearGradient id="paint13_linear_262_16834" x1="457.252" y1="507.881" x2="648.502" y2="422.12" gradientUnits="userSpaceOnUse">
<stop stop-color="#253E5F"/>
<stop offset="1" stop-color="#223D5F" stop-opacity="0"/>
</linearGradient>
</defs>
</svg>
