<svg width="16" height="16" viewBox="0 0 16 16" fill="none" xmlns="http://www.w3.org/2000/svg">
<rect width="16" height="16" rx="4" fill="#014099"/>
<path d="M12.0576 5.1875C12.1423 5.1875 12.222 5.2054 12.2969 5.24121C12.3717 5.27376 12.4368 5.31934 12.4922 5.37793C12.5508 5.43327 12.5964 5.49837 12.6289 5.57324C12.6647 5.64811 12.6826 5.72786 12.6826 5.8125C12.6826 5.98828 12.6224 6.13639 12.502 6.25684L7.3457 11.4131C7.22526 11.5335 7.07715 11.5938 6.90137 11.5938C6.72559 11.5938 6.57747 11.5335 6.45703 11.4131L3.48828 8.44434C3.36784 8.32389 3.30762 8.17578 3.30762 8C3.30762 7.91536 3.32389 7.83561 3.35645 7.76074C3.39225 7.68587 3.43783 7.62077 3.49316 7.56543C3.55176 7.50684 3.61849 7.46126 3.69336 7.42871C3.77148 7.3929 3.85124 7.375 3.93262 7.375C4.1084 7.375 4.25651 7.43522 4.37695 7.55566L6.90137 10.085L11.6133 5.36816C11.7337 5.24772 11.8818 5.1875 12.0576 5.1875Z" fill="white"/>
</svg>
